<?xml version="1.0" encoding="utf-8"?>
<!-- Generator: Adobe Illustrator 22.0.1, SVG Export Plug-In . SVG Version: 6.00 Build 0)  -->
<svg version="1.1" id="Слой_1" xmlns="http://www.w3.org/2000/svg" xmlns:xlink="http://www.w3.org/1999/xlink" x="0px" y="0px"
	 viewBox="0 0 100 100" style="enable-background:new 0 0 100 100;" xml:space="preserve">
<style type="text/css">
	.st0{fill:#FFFFFF;}
	.st1{fill:#b52331;}
	.st2{fill:none;stroke:#b52331;stroke-miterlimit:10;}
	.st3{fill:none;stroke:#b52331;stroke-width:1.5;stroke-miterlimit:10;}
</style>
<g id="XMLID_1_">
	<g>
		<g id="XMLID_2_">
			<g>
				<path class="st0" d="M74.4,31.1c0,0,0.4-0.4,0.7-1.4c-0.4,1.1-0.8,1.6-0.8,1.6l-2,0.9c0-0.1,0-0.1,0-0.1L74.4,31.1z"/>
				<path class="st1" d="M52.1,7.8c2.5,0,4,3.3,4,3.3s4.8-0.9,7.1,0.7c2.3,1.6,2.7,3.2,2.7,3.2s2.4-0.4,3.7,1.2
					c1.2,1.5,1.2,2.9,1.2,2.9s3.8,0.9,4.6,5.7c0.3,2,0.1,3.5-0.1,4.5c0,0.2-0.1,0.3-0.1,0.5c-0.3,0.9-0.7,1.4-0.7,1.4l-2.1,1
					c0,0,0,0,0,0.1l-0.1,0.1c0,0,0.5,1.3-0.2,2.7c-0.4,0.8-1.2,1.5-2.6,2.1c-4.2,1.7-6.1,1.8-6.1,1.8s-1.5,2.9-6.6,6
					c-4,2.5-8.1,2.8-9,3.7c0,0-0.6,0.8-1.3,1.9c-0.2,0.2-0.3,0.5-0.5,0.7c-0.2,0.3-0.4,0.6-0.6,1c-0.5,0.9-0.9,1.8-1.1,2.5
					c-0.3,1.2-0.5,3-1,4.3c0,0,0,0,0,0.1c-0.5,0.9-1.1,1.6-2.2,1.6c-2.6,0-2.7-6.1-2.7-6.1S34.6,55,30.8,54c-4-0.9-5.5-4-5.5-4
					s-4.2,0.8-6.1-1c-1.9-1.8-1.4-6.2-1.4-6.2s-4.1-1-4.1-7.4c0-2.6,0.6-4.5,1.2-5.9c0,0,0-0.1,0.1-0.1c0.9-1.8,2-2.5,2-2.5
					s0,0,0-0.1c0.1-0.1,0.1-0.1,0.1-0.1s-1-3.2,0-5.6c0-0.1,0.1-0.1,0.1-0.2c0.1-0.1,0.1-0.2,0.2-0.3c1.6-2.4,2.9-2.5,2.9-2.5
					s0-0.1,0-0.2c0.1,0,0.1,0,0.1,0s-0.2-2.2,1.6-4.4c0,0,0,0,0,0c0.5-0.5,1.1-1.1,2-1.6c4-2.7,7.8-0.7,7.8-0.7s0-0.1,0-0.2
					c0,0,0.1,0,0.1,0s0-0.3,0.2-0.8c0.3-0.6,1-1.4,2.5-1.7c2.7-0.7,4.5,0,4.5,0S39.9,7,43,7c3.1,0,5.1,1.8,5.1,1.8
					S49.6,7.8,52.1,7.8z"/>
				<path class="st0" d="M63.3,38.9c0,0,1.9-0.1,6.1-1.8c1.4-0.5,2.2-1.3,2.6-2.1c-0.4,0.8-1.2,1.7-2.7,2.3
					c-4.1,1.7-6.1,1.8-6.1,1.8s-1.5,2.9-6.6,6c-4,2.4-8.2,2.8-9,3.7c0,0-0.6,0.7-1.2,1.7c0.7-1.1,1.3-1.9,1.3-1.9
					c0.9-0.9,5-1.2,9-3.7C61.8,41.8,63.3,38.9,63.3,38.9z"/>
				<path class="st0" d="M45.9,51.3c0.2-0.3,0.3-0.5,0.5-0.7C46.2,50.8,46.1,51,45.9,51.3z"/>
				<path class="st0" d="M32.1,10.3c-0.2,0.4-0.2,0.8-0.2,0.8s0,0-0.1,0C31.9,10.8,32,10.6,32.1,10.3z"/>
				<path class="st0" d="M22,13.6c-1.8,2.2-1.6,4.4-1.6,4.4s0,0-0.1,0C20.3,17.4,20.4,15.4,22,13.6z"/>
				<path class="st0" d="M17.1,26.7c0,0-0.1,0-0.1,0.1c-0.1-0.6-0.9-3.6,0.1-5.7C16.1,23.5,17.1,26.7,17.1,26.7z"/>
				<path class="st0" d="M13.7,35.4c0,6.4,4.1,7.4,4.1,7.4s-0.5,4.4,1.4,6.2c1.9,1.8,6.1,1,6.1,1s1.5,3.1,5.5,4
					c3.8,1,7.5,0.6,7.5,0.6s0.1,6.1,2.7,6.1c1,0,1.7-0.7,2.2-1.6c-0.4,1-1.1,1.8-2.3,1.8c-2.6,0-2.7-6.1-2.7-6.1s-3.7,0.4-7.5-0.6
					c-3.9-1-5.5-4-5.5-4s-4.1,0.9-6.1-1c-1.9-1.8-1.4-6.2-1.4-6.2s-4.1-1-4.1-7.4c0-2.7,0.6-4.7,1.3-6.1
					C14.3,30.9,13.7,32.8,13.7,35.4z"/>
			</g>
			<g>
				<path class="st2" d="M22,13.5c0.5-0.5,1.1-1.1,2-1.6c4-2.7,7.8-0.7,7.8-0.7s0-0.1,0-0.2c0-0.2,0.1-0.4,0.3-0.7
					c0.3-0.6,1-1.4,2.5-1.7c2.7-0.7,4.5,0,4.5,0S39.9,7,43,7c3.1,0,5.1,1.8,5.1,1.8s1.5-1,4-1s4,3.3,4,3.3s4.8-0.9,7.1,0.7
					c2.3,1.6,2.7,3.2,2.7,3.2s2.4-0.4,3.7,1.2c1.2,1.5,1.2,2.9,1.2,2.9s3.8,0.9,4.6,5.7c0.3,2,0.1,3.5-0.1,4.5"/>
				<path class="st2" d="M17.2,21c0.1-0.1,0.1-0.2,0.2-0.3c1.6-2.4,2.9-2.5,2.9-2.5s0-0.1,0-0.2c0-0.6,0.1-2.5,1.7-4.4"/>
				<path class="st2" d="M15,29.5c0.9-1.8,2-2.5,2-2.5s0,0,0-0.1c-0.1-0.6-0.9-3.6,0.1-5.7"/>
				<path class="st2" d="M43.2,59.1c-0.4,1-1.1,1.8-2.3,1.8c-2.6,0-2.7-6.1-2.7-6.1s-3.7,0.4-7.5-0.6c-3.9-1-5.5-4-5.5-4
					s-4.1,0.9-6.1-1c-1.9-1.8-1.4-6.2-1.4-6.2s-4.1-1-4.1-7.4c0-2.7,0.6-4.7,1.3-6.1"/>
				<path class="st2" d="M45.3,52.2c-0.5,0.9-0.9,1.8-1.1,2.5c-0.3,1.2-0.5,3-1,4.3"/>
				<path class="st2" d="M75.1,29.8c-0.4,1.1-0.8,1.6-0.8,1.6l-2,0.9l-0.1,0.1c0,0,0.5,1.3-0.2,2.7c-0.4,0.8-1.2,1.7-2.7,2.3
					c-4.1,1.7-6.1,1.8-6.1,1.8s-1.5,2.9-6.6,6c-4,2.4-8.2,2.8-9,3.7c0,0-0.6,0.7-1.2,1.7c-0.2,0.2-0.3,0.5-0.5,0.7"/>
				<path class="st3" d="M75.3,29.3c0.3-1,0.5-2.6,0.2-4.7c-0.9-4.6-4.7-5.8-4.7-5.8s0.1-1.3-1.2-2.9c-1.2-1.5-3.7-1.2-3.7-1.2
					s-0.4-1.6-2.7-3.2c-2.3-1.6-7-0.6-7-0.6s-1.5-3.3-4-3.3s-4,1-4,1s-2-1.8-5.1-1.8c-3.2,0-3.9,1.5-3.9,1.5s-1.8-0.7-4.5,0
					c-1.6,0.4-2.3,1.3-2.6,1.9c-0.2,0.4-0.2,0.8-0.2,0.8s0,0-0.1,0c-0.5-0.2-4-1.8-7.7,0.7c-0.9,0.6-1.5,1.2-2.1,1.8c0,0,0,0,0,0
					c-1.8,2.2-1.6,4.4-1.6,4.4s0,0-0.1,0c-0.3,0.1-1.4,0.5-2.8,2.5c-0.1,0.2-0.2,0.4-0.3,0.5c0,0.1-0.1,0.1-0.1,0.2
					c-1,2.3,0,5.6,0,5.6s-0.1,0-0.1,0.1c-0.3,0.3-1.2,1.1-2,2.6c0,0,0,0.1-0.1,0.1c-0.7,1.4-1.2,3.3-1.2,5.9c0,6.4,4.1,7.4,4.1,7.4
					s-0.5,4.4,1.4,6.2c1.9,1.8,6.1,1,6.1,1s1.5,3.1,5.5,4c3.8,1,7.5,0.6,7.5,0.6s0.1,6.1,2.7,6.1c1,0,1.7-0.7,2.2-1.6c0,0,0,0,0-0.1
					c0.6-1.4,0.8-3.3,1.1-4.5c0.2-0.7,0.5-1.5,1-2.3c0.2-0.3,0.4-0.7,0.6-1c0.2-0.3,0.3-0.5,0.5-0.7c0.7-1.1,1.3-1.9,1.3-1.9
					c0.9-0.9,5-1.2,9-3.7c5.1-3.1,6.6-6,6.6-6s1.9-0.1,6.1-1.8c1.4-0.5,2.2-1.3,2.6-2.1c0.7-1.2,0.4-2.4,0.3-2.8c0-0.1,0-0.1,0-0.1
					l2.1-1c0,0,0.4-0.4,0.7-1.4C75.2,29.7,75.2,29.5,75.3,29.3z"/>
				<path class="st3" d="M94.6,61c0.8,1.4,0.7,3.1-0.6,4.2c-1.2,1.1-6.3,2-6.3,2l-0.2,14.4c0,0-0.4,5-4.6,5
					c-4.2,0-11.1,0.1-11.1,0.1s-3.9,0.3-5.1,3.2c-1.2,2.9-1,6.7-1,6.7s0.4,2.5-2.9,2.5H25.3c-1.2,0-2.2-0.5-3.1-1.3
					c-0.6-0.6-0.9-1.4-0.9-2.2v-17c0,0-0.4-8.2-5.2-12.1c-4.8-4-9.6-15.1-10.6-20.9c-1.1-5.9-0.8-15.3,1.7-21.3S14.8,11.1,21,7.4
					c5.7-3.6,12.6-6.6,25.6-6.6s23,7.3,27.2,11.4c4.3,4.1,9.7,10.9,11.4,17.1c1.6,6.2,1.4,8.9,1.4,12.3c0,3.4-0.9,4.6-0.8,6.4
					c0.1,1.9,1.7,5.5,2.6,6.6C89.4,55.8,93.8,59.6,94.6,61z"/>
			</g>
		</g>
	</g>
</g>
</svg>
