<?xml version="1.0" encoding="utf-8"?>
<!-- Generator: Adobe Illustrator 21.0.0, SVG Export Plug-In . SVG Version: 6.00 Build 0)  -->
<svg version="1.1" id="Слой_1" xmlns="http://www.w3.org/2000/svg" xmlns:xlink="http://www.w3.org/1999/xlink" x="0px" y="0px"
	 viewBox="0 0 100 100" style="enable-background:new 0 0 100 100;" xml:space="preserve">
<style type="text/css">
	.st0{fill:#B52331;}
</style>
<g>
	<path class="st0" d="M50,0.5c-7.7,0-14.1,2.8-14.1,6.2s6.3,6.2,14.1,6.2s14.1-2.8,14.1-6.2S57.9,0.5,50,0.5z M50,11.2
		c-5.8,0-10.6-2.1-10.6-4.5S44.1,2.1,50,2.1s10.6,2.1,10.6,4.5C60.6,9.3,55.9,11.2,50,11.2z"/>
	<path class="st0" d="M60.2,26.9c0,10.7-4.5,10.7-10.2,10.7s-10.2,0-10.2-10.7c0-5.9,4.5-10.7,10.2-10.7S60.2,21,60.2,26.9z"/>
	<path class="st0" d="M65.6,69.4c0,9.6,6.3,25.2,6.3,25.2c-2.8,8.4-16.1,3.6-21.9,3.6c-5.6,0-19,4.3-21.9-3.4c0,0,5.9-15.3,5.9-25.3
		c0-23.7,7-28.7,15.7-28.7S65.6,45.2,65.6,69.4z"/>
	<g>
		<path class="st0" d="M34.8,43c0,0-2.5-1.2-6.3-1.2s-6.9,1.5-9.2,4.8c-2.2,3.3-2.5,5.8-5.4,9.6c-3.9,5.2-6.9,7.9-7.9,9.4
			c-1,1.5-4.7,5.1-4.7,5.1s4,0.4,6.1-1.5c2.1-1.9,3.4-1.9,3.4-1.9s0.6,1.9,3,1.9c3.6,0,5.1-2.3,5.1-2.3s1.8,2.5,4.4,2.5
			s5.2-2.8,5.2-2.8s-0.4-8.7,0.8-13.4C31.3,46.9,34.8,43,34.8,43z"/>
		<path class="st0" d="M65.2,43c0,0,2.5-1.2,6.3-1.2c3.9,0,6.9,1.5,9.2,4.8c2.2,3.3,2.5,5.8,5.4,9.6c3.9,5.2,6.9,7.9,7.9,9.4
			c1,1.5,4.7,5.1,4.7,5.1s-4,0.4-6.1-1.5c-2.1-1.9-3.4-1.9-3.4-1.9s-0.6,1.9-3,1.9c-3.6,0-5.1-2.3-5.1-2.3s-1.8,2.5-4.4,2.5
			s-5.2-2.8-5.2-2.8s0.4-8.7-0.8-13.4C68.9,46.9,65.2,43,65.2,43z"/>
	</g>
</g>
</svg>
