<?xml version="1.0" encoding="utf-8"?>
<!-- Generator: Adobe Illustrator 22.0.1, SVG Export Plug-In . SVG Version: 6.00 Build 0)  -->
<svg version="1.1" id="Слой_1" xmlns="http://www.w3.org/2000/svg" xmlns:xlink="http://www.w3.org/1999/xlink" x="0px" y="0px"
	 viewBox="0 0 100 100" style="enable-background:new 0 0 100 100;" xml:space="preserve">
<style type="text/css">
	.st0{fill:#b52331;}
</style>
<g>
	<g id="XMLID_1_">
		<g>
			<path class="st0" d="M78.4,36.8c1.3,0,7.6,1.7,7.6,1.7s-6.3,1.7-7.6,1.7c-1.2,0-2.3-0.8-2.3-1.7C76.2,37.5,77.2,36.8,78.4,36.8z"
				/>
			<path class="st0" d="M85.3,31.4c0,0-5.8,3-7,3.3s-2.4-0.2-2.6-1.2c-0.2-0.9,0.6-1.9,1.9-2.1S85.3,31.4,85.3,31.4z"/>
			<path class="st0" d="M78.2,42.2c1.2,0.2,7.1,3.1,7.1,3.1s-6.5,0.4-7.7,0.2s-2.1-1.2-1.9-2.1C75.9,42.5,77,41.9,78.2,42.2z"/>
			<path class="st0" d="M76.9,47.4c1.2,0.5,6.4,4.4,6.4,4.4s-6.5-0.8-7.6-1.2c-1.2-0.5-1.8-1.5-1.5-2.4
				C74.5,47.2,75.8,46.9,76.9,47.4z"/>
			<path class="st0" d="M75.6,26.2c1.2-0.5,7.6-1.4,7.6-1.4s-5.2,4-6.3,4.5c-1.2,0.5-2.4,0.2-2.7-0.7C73.8,27.7,74.5,26.6,75.6,26.2
				z"/>
			<path class="st0" d="M72.8,21.7c1-0.7,6.8-2.7,7.2-2.8c-0.3,0.3-4.3,4.9-5.3,5.6s-2.3,0.6-2.8-0.1C71.4,23.6,71.8,22.4,72.8,21.7
				z"/>
			<path class="st0" d="M80,57.6c-0.4-0.1-6.2-1.9-7.3-2.6c-1.1-0.7-1.5-1.8-1-2.6s1.8-0.9,2.8-0.2C75.5,52.8,79.7,57.4,80,57.6z"/>
			<circle class="st0" cx="50.7" cy="38.5" r="21.6"/>
			<path class="st0" d="M71.5,56.7c0.9,0.9,4,6.2,4.2,6.5C75.4,63,70,60,69.2,59.1c-0.9-0.9-1.1-2.1-0.4-2.8
				C69.3,55.6,70.6,55.8,71.5,56.7z"/>
			<path class="st0" d="M75.4,13.5c-0.2,0.3-3.2,5.7-4.1,6.5c-0.9,0.9-2.1,1.1-2.8,0.4c-0.7-0.7-0.5-1.9,0.4-2.8
				C69.8,16.8,75.1,13.7,75.4,13.5z"/>
			<path class="st0" d="M64.7,62.4c-0.7-1-0.6-2.3,0.1-2.8c0.8-0.5,2-0.1,2.7,1c0.7,1,2.7,6.8,2.8,7.2C70,67.5,65.4,63.4,64.7,62.4z
				"/>
			<path class="st0" d="M67.3,16.4c-0.7,1.1-1.8,1.5-2.6,1c-0.8-0.5-0.9-1.8-0.2-2.8c0.6-1,5.1-5.2,5.4-5.5
				C69.8,9.5,68,15.4,67.3,16.4z"/>
			<path class="st0" d="M59.9,64.7c-0.5-1.2-0.2-2.4,0.7-2.7c0.9-0.4,1.9,0.3,2.4,1.4c0.5,1.2,1.4,7.6,1.4,7.6S60.4,65.8,59.9,64.7z
				"/>
			<path class="st0" d="M60.4,15c-0.9-0.3-1.2-1.6-0.7-2.7c0.5-1.2,4.4-6.4,4.4-6.4s-0.8,6.5-1.2,7.6C62.3,14.6,61.3,15.3,60.4,15z"
				/>
			<path class="st0" d="M57.8,65.3c0.3,1.2,0,7.7,0,7.7s-3-5.8-3.3-7s0.3-2.4,1.2-2.6C56.6,63.2,57.5,64,57.8,65.3z"/>
			<path class="st0" d="M54.4,10.9c0.2-1.2,3.1-7.1,3.1-7.1s0.4,6.5,0.2,7.7s-1.2,2.1-2.1,1.9C54.7,13.3,54.2,12.2,54.4,10.9z"/>
			<path class="st0" d="M50.7,63.9c0.9,0,1.7,1,1.7,2.3c0,1.2-1.7,7.5-1.7,7.5S49,67.4,49,66.2C49,64.9,49.8,63.9,50.7,63.9z"/>
			<path class="st0" d="M52.4,10.7c0,1.2-0.8,2.3-1.7,2.3S49,12,49,10.7s1.7-7.5,1.7-7.5S52.4,9.5,52.4,10.7z"/>
			<path class="st0" d="M60.2,96c-1.2,0.3-1.8-1.3-1.8-1.3s-0.5,1.6-1.8,1.9c-1.2,0.3-1.2-1.2-1.2-1.4c0,0-1.5,1.3-2.7,1.5
				c-1.1,0.3-0.9-1.4-0.9-1.6c0,0-1.5,1.5-2.4,1.6s-0.5-2-0.5-2s-1.1,1.5-3,1.8s1.9-2.8,1.9-2.8s4.2,0.5,7.7,0.1s5.9-1,7.3-2
				s1.7-2.8,1.7-2.8s2.9,0.7,5.1,0.6c2.3-0.1,5,0,5,0s1.2-0.1,0.2,0.4s-3.1,0.8-4.6,0.9s1.5,1.2,0.2,1.4c-1.3,0.2-2.7-1.1-3.1-0.2
				s1.3,1.8-0.2,1.6c-1.5-0.2-2.5-1.4-2.7-0.6c-0.3,0.8,1.1,1.4-0.1,1.6c-1.2,0.2-2.2-1.1-2.4-0.8C61.6,94.4,61.4,95.7,60.2,96z"/>
			<path class="st0" d="M43.6,11.6c-0.3-1.2,0-7.7,0-7.7s3,5.8,3.3,7s-0.2,2.4-1.2,2.6C44.8,13.7,43.9,12.9,43.6,11.6z"/>
			<path class="st0" d="M43.8,73c0,0-0.4-6.5-0.2-7.7s1.2-2.1,2.1-1.9c0.9,0.2,1.5,1.3,1.2,2.5C46.7,67.2,43.8,73,43.8,73z"/>
			<path class="st0" d="M37.3,71.1c0,0,0.8-6.5,1.2-7.6c0.5-1.2,1.5-1.8,2.4-1.5s1.2,1.6,0.7,2.7C41.2,65.8,37.3,71.1,37.3,71.1z"/>
			<path class="st0" d="M41.5,12.2c0.5,1.2,0.2,2.4-0.7,2.7c-0.8,0.4-1.9-0.3-2.4-1.4C37.9,12.4,37,5.9,37,5.9S41,11.1,41.5,12.2z"
				/>
			<path class="st0" d="M36.7,59.4c0.8,0.5,0.9,1.8,0.2,2.8c-0.6,1-5.2,5.2-5.4,5.5c0.1-0.4,1.9-6.2,2.6-7.3
				C34.7,59.4,35.9,58.9,36.7,59.4z"/>
			<path class="st0" d="M33.9,16.3c-0.7-1-2.7-6.8-2.8-7.2c0.3,0.3,4.9,4.3,5.6,5.3c0.7,1,0.6,2.3-0.1,2.8
				C35.8,17.8,34.6,17.4,33.9,16.3z"/>
			<path class="st0" d="M76.4,73.4c-0.7,0.1-4.1,2.4-6.3,3.7c-2.2,1.3-5.4,4.6-5.4,4.6s-0.8-0.3-1.6-0.4c-0.8-0.2-1.6-0.1-3.7,0.3
				c-2,0.4-5.4,1.7-6.5,2.1c-1.2,0.3-2.7,1.4-2.7,1.4s-4,2.8-4.9,3.2c-0.9,0.4-2,0.4-3.2,0.9s-1.6,1.1-1.6,1.1s1.6-0.2,3.5-0.4
				c2-0.1,3.2-0.9,2.9-0.5s-0.9,0.2-0.8,0.7c0,0.6,0.6,0.2,0.1,0.6c-0.4,0.4-1.9,0.5-1.4,1s4.6,0.3,4.6,0.3s-0.8,0.1-0.2,0.5
				s6.4,0.3,6.4,0.3s-5.5,0.6-7.7,0.6s-3.2-0.4-4.6-0.1c-1.4,0.3-4.5-0.1-5-0.1c-0.6,0-0.6-0.2-1.2,0.1c-0.6,0.3-0.4,1.4-0.4,1.4
				s-0.5-0.8-0.4-1.8s1.3-1.7,1.3-1.7s-0.1-0.4,0.5-1.4s5.6-2.3,7.8-3.5s5-4.5,5-4.5s9.4-0.8,12.7-2.3c3.4-1.5,10.3-6.2,14-9.8
				c3.7-3.6,8.6-12.5,9.9-15.3c1.5-3,2.5-11.5,2.5-11.5s0.7,1.4,0.6,5.2c-0.1,3.5-0.9,5.5-1,5.8c0.3-0.4,2.4-3.8,3.3-5.8
				c1-2.2,2.3-7.4,2.3-7.4s0.3,3.4-0.9,7.8c-1.1,4.4-2.9,8.6-2.9,8.6s2.8-3.2,4.4-5.2c1.5-2.1,3.7-7.9,3.7-7.9s0.5,2.3-1.4,6.9
				s-6.6,11.5-6.6,11.5s2.9-1.7,3.9-2.6c0.9-0.8,4.4-4.1,4.7-4.4c-0.2,0.4-1.9,3.7-3.4,5.9c-1.6,2.3-5.9,6.5-5.9,6.5s1.6-0.1,2.8-1
				c1.2-0.9,2.5-2.1,2.5-2.1l1.3-0.6c0,0-1.1,2.8-3.4,4.5c-2.4,1.4-6,3.2-6,3.2s1,0.1,3.3-0.3s1,0.4,1,0.4s-1,0.8-2.2,1.4
				C89,74,86.5,75,86.5,75l3.5,0.2c0,0-0.2,0.3-1,0.9s-4,0.9-3.9,1c0.1,0,2.7,0.1,3.3,0.6c0.6,0.6-0.5,0.8-0.5,0.8s-2.3,0.8-3.2,0.8
				c-0.8,0-2.1,0.6-2.1,0.6s1.4,0.1,2,0.3c0.7,0.2,0.8,1.1,0.8,1.1s-0.9,0.1-2.1,0.2c-1.1,0.1-2.2,0.8-2.2,0.8s-3.9,1.9-5.8,2.7
				c-2,0.8-4.7,0-4.7,0s3.7-0.4,5.2-1.6c1.6-1.2,5.3-2.5,5.3-2.5l-1.8-1.6l3.5-1.6l-1.6-0.9l2.9-1l-0.8-1.2l2.2-2l-2.2-0.4l6.1-3.4
				h-2.6c0,0,1.3-0.9,2-1.7c0.6-0.9,1.8-2.4,1.8-2.4l-2.4,0.2c0,0,0.8-0.9,1.6-2.4c0.9-1.5,0.8-2.6,0.8-2.6L89,60.4v-2.7l-1.2,1.7
				l-0.4-2.2c0,0-0.4,1.2-1,2.4s-1.8,2.3-1.8,2.3h1.8c0,0-3,2.2-4.6,4.3C80.2,68.3,78,73,78,73S77.2,73.3,76.4,73.4z"/>
			<path class="st0" d="M25.9,63.4c0.2-0.3,3.2-5.7,4.1-6.5c0.9-0.9,2.1-1.1,2.8-0.4c0.7,0.7,0.5,1.9-0.4,2.8
				C31.6,60.1,26.3,63.2,25.9,63.4z"/>
			<path class="st0" d="M29.9,20.2c-0.9-0.8-4-6.2-4.2-6.5c0.3,0.2,5.7,3.2,6.5,4.1c0.9,0.9,1.1,2.1,0.4,2.8
				C32,21.3,30.8,21.1,29.9,20.2z"/>
			<path class="st0" d="M29.7,24.5c-0.5,0.8-1.8,0.9-2.8,0.2c-1-0.6-5.2-5.1-5.5-5.4c0.4,0.1,6.3,1.9,7.3,2.6
				C29.7,22.5,30.2,23.7,29.7,24.5z"/>
			<path class="st0" d="M28.5,55.2c-1,0.7-6.8,2.7-7.2,2.8c0.3-0.3,4.3-4.9,5.3-5.6c1-0.7,2.3-0.6,2.8,0.1S29.6,54.5,28.5,55.2z"/>
			<path class="st0" d="M23.8,31.4c1.2,0.2,2.1,1.2,1.9,2.1s-1.3,1.4-2.5,1.2s-7.1-3.1-7.1-3.1S22.6,31.2,23.8,31.4z"/>
			<path class="st0" d="M18.1,52.1c0,0,5.2-4,6.3-4.5c1.2-0.5,2.4-0.2,2.7,0.7c0.4,0.9-0.3,1.9-1.4,2.4
				C24.6,51.2,18.1,52.1,18.1,52.1z"/>
			<path class="st0" d="M24.4,29.5C23.2,29,18,25.1,18,25.1s6.5,0.8,7.6,1.2c1.2,0.5,1.8,1.5,1.5,2.4C26.8,29.6,25.6,30,24.4,29.5z"
				/>
			<path class="st0" d="M23.8,45.5c-1.2,0.3-7.7,0-7.7,0s5.8-3,7-3.3s2.4,0.3,2.6,1.2C25.9,44.3,25.1,45.3,23.8,45.5z"/>
			<path class="st0" d="M23,36.8c1.2,0,2.3,0.8,2.3,1.7s-1,1.7-2.3,1.7s-7.6-1.7-7.6-1.7S21.7,36.8,23,36.8z"/>
			<path class="st0" d="M9.2,61.3c-0.2-0.8-3.8-6-4.5-7.2s-3.2-6.4-3.2-6.4s-1.2-3.3-0.4-4c0.8-0.6,1.2,1,1.2,1s1.6,4.1,2.6,5.9
				s4.6,6,4.6,6S9.2,55.3,8.9,54c-0.3-1.4-0.3-1.7-1.9-5.1c-1.6-3.3-1.9-5.4-1.9-5.4s-0.3-2.6,0.2-2.8s1,0.8,1.1,1.3
				s1.2,3.7,1.7,4.9s3.1,5.7,3.1,5.7s-0.3-2.3-0.7-4.4s-0.3-3.9-0.3-3.9s0.1-1.2,0.8-1.2s0.7,0.9,0.7,0.9s0.6,6.9,2.4,12.2
				s9,13.6,9,13.6s3.6,3.3,5.5,4.8s5.2,3.7,9.3,5.3c4.1,1.5,11.8,2.4,11.8,2.4s-0.8,0.7-1.2,1.3c-0.4,0.6-1.2,0.5-1.2,0.5
				s-0.8-0.2-1.7-1.1c-1-0.9-2.9-1.2-5.4-1.8c-2.5-0.6-5.8-0.5-5.8-0.5s-3-2.8-5.3-4.9s-6.7-4.2-6.7-4.2s-0.3-0.3-1-1.9
				s-2-2.4-4.6-6.1c-2.5-3.7-3.6-7.2-3.8-6.7s0,1-0.3,1.4c-0.2,0.4-0.8-1.4-1.2-0.8c-0.4,0.6,0.4,2,0.3,2.7
				c-0.1,0.7-1.5-1.4-1.7-0.1c-0.2,1.3,2.8,4.3,2.6,4.9s-2.3-1.5-2.3-0.2s3.7,3.2,3.7,3.7c0,0.4-2.8-0.6-2.6,0.4s6.2,3.4,6.3,3.8
				c0.1,0.4-2.3-0.5-2.1,0.1s1.7,0.8,1.9,1.5s-0.9,0.9-0.6,1.5c0.3,0.5,2.6,0.7,2.5,1.2s-1.6,0.7-1.4,0.9c0.1,0.3,0.6,0.5,1.3,0.8
				c0.7,0.3,1.9,0,1.8,0.6s-1.1,1.5-1.1,1.5s3.3,1.2,4.2,2.1c1,0.9,5.9,2.3,5.9,2.3s-4.7,0.1-6.5-1.3c-1.8-1.3-4.2-1.6-5.1-2.1
				c-1-0.5-2.2,0-2.9-0.8c-0.7-0.8,2.4-1.3,2.4-1.3s-5.1-1.3-5.3-1.9s3.5-0.7,3.5-0.7s-5.5-1.1-5.7-1.6c-0.2-0.6,3.8-0.8,3.8-0.8
				s-1.3-0.4-2.7-0.7s-3.3-1.5-3.3-2.1s1-0.2,1-0.2s2,0.5,2.2-0.2c0.1-0.7-2-1.5-3.3-2.2c-1.2-0.7-3.3-2.7-4-3.4
				c-0.7-0.7-1-1.6-0.6-2s2.4,1.4,3.4,2.3s3.1,2.1,2.9,1.3c-0.2-0.8-3.6-4.1-4.2-4.9c-0.7-0.8-3.5-4.2-4-4.8S0.7,56,0.7,55.3
				c0-0.8,0.6-0.2,1,0.1S3.5,57.3,4,58s5,4.3,5,4.3S9.4,62.1,9.2,61.3z"/>
		</g>
	</g>
</g>
</svg>
