<?xml version="1.0" encoding="utf-8"?>
<!-- Generator: Adobe Illustrator 22.0.1, SVG Export Plug-In . SVG Version: 6.00 Build 0)  -->
<svg version="1.1" id="Слой_1" xmlns="http://www.w3.org/2000/svg" xmlns:xlink="http://www.w3.org/1999/xlink" x="0px" y="0px"
	 viewBox="0 0 100 100" style="enable-background:new 0 0 100 100;" xml:space="preserve">
<style type="text/css">
	.st0{fill:#b52331;}
</style>
<path class="st0" d="M95.1,64.6L83.4,34.2c-0.5-0.9-1.7-0.9-2.2,0L69.6,64.6h-4.9c2.9,6.9,9.7,11.8,17.7,11.8s14.8-4.8,17.7-11.8
	H95.1z M72.5,64.6L82.3,39l9.8,25.6H72.5z"/>
<path class="st0" d="M30.4,64.6L18.8,34.2c-0.5-0.8-1.7-0.8-2.2,0L4.9,64.6H0c2.9,6.9,9.7,11.8,17.7,11.8s14.8-4.8,17.7-11.8H30.4z
	 M7.8,64.6L17.7,39l9.8,25.6H7.8z"/>
<path class="st0" d="M67.7,94h-4.5c-1.8-3.9-5.3-6.9-9.6-8V43.3c2.2-1.3,3.8-3.7,3.8-6.4v-0.1H42.6v0.1c0,2.8,1.5,5.2,3.8,6.4V86
	c-4.3,1.1-7.8,4.1-9.6,8h-4.5c-3.3,0-6,2.7-6,6h9.2h10.9h7.3h10.9h9.2C73.7,96.7,71,94,67.7,94z"/>
<circle class="st0" cx="49.9" cy="25.3" r="9.3"/>
<path class="st0" d="M53.9,10.4c0,2.1-1.7,3.9-3.9,3.9s-3.9-1.7-3.9-3.9S50,0,50,0S53.9,8.2,53.9,10.4z"/>
<path class="st0" d="M85,27H15c-0.9,0-1.7-0.7-1.7-1.7l0,0c0-0.9,0.7-1.7,1.7-1.7h70c0.9,0,1.7,0.7,1.7,1.7l0,0
	C86.6,26.3,85.9,27,85,27z"/>
</svg>
